<svg version="1.1" id="Layer_1" xmlns="http://www.w3.org/2000/svg" xmlns:xlink="http://www.w3.org/1999/xlink" x="0px" y="0px"
	 width="100%" viewBox="0 0 512 512" enable-background="new 0 0 512 512" xml:space="preserve">
<path fill="#FFFFFF" opacity="1.000000" stroke="none" 
	d="
M513.000000,263.000000 
	C513.000000,346.299530 513.000000,429.599030 513.000000,512.949280 
	C342.436432,512.949280 171.872849,512.949280 1.000000,512.949280 
	C1.000000,410.644867 1.000000,308.289398 1.369545,205.570053 
	C2.132360,205.718658 2.746789,206.177139 2.887055,206.751450 
	C8.781118,230.883926 22.349651,248.691650 45.701862,258.206665 
	C64.848213,266.007996 86.105934,262.316772 100.545433,247.740082 
	C115.772591,232.368240 120.198883,213.289993 117.073517,192.123718 
	C114.245300,172.969742 105.947357,156.919403 90.973358,144.485855 
	C77.039528,132.916031 61.337505,127.447617 43.161011,131.014160 
	C25.162506,134.545776 13.341972,145.599304 5.978997,161.960587 
	C4.322376,165.641769 2.659821,169.320267 1.000000,173.000000 
	C1.000000,115.693611 1.000000,58.387218 1.000000,1.040413 
	C171.559525,1.040413 342.119049,1.040413 513.000000,1.040413 
	C513.000000,80.688393 513.000000,160.377213 512.617859,240.400803 
	C510.409637,234.944000 509.661407,228.488281 506.572266,223.474991 
	C492.659088,200.895615 472.844391,194.482819 448.283630,199.143066 
	C432.050232,202.223251 418.843597,211.379227 408.661743,224.063126 
	C395.923035,239.932190 389.406281,258.018402 391.881287,278.913849 
	C393.304474,290.929199 397.598053,301.546021 405.802917,310.091095 
	C417.159332,321.918396 431.364227,326.585052 447.899475,325.139038 
	C458.966095,324.171234 469.011017,320.897705 478.181854,314.938599 
	C491.444122,306.320953 501.592926,294.917999 507.397186,280.046661 
	C509.568665,274.483032 511.149719,268.688995 513.000000,263.000000 
M227.666565,210.000000 
	C213.105576,212.057632 198.941437,215.398346 185.645096,221.998001 
	C165.556229,231.969131 148.907593,245.991531 136.288605,264.460510 
	C127.217148,277.737366 118.943642,291.560425 110.348816,305.161743 
	C96.169380,327.600677 81.852158,349.954926 67.911392,372.541382 
	C58.181618,388.305328 57.137779,405.559784 60.735313,423.312866 
	C64.475273,441.768768 74.685509,456.047760 89.626053,467.094574 
	C107.099907,480.014435 126.811523,483.752808 147.771896,479.434875 
	C156.772598,477.580719 165.366547,473.643372 174.056625,470.413849 
	C189.871475,464.536407 206.215439,460.467590 222.937820,459.258636 
	C236.066879,458.309479 249.414429,459.058411 262.566925,460.190826 
	C272.482758,461.044525 282.394501,463.134033 292.031372,465.709076 
	C301.907349,468.348053 311.569214,471.933838 321.105347,475.665985 
	C336.141144,481.550476 351.421204,482.623230 367.032684,478.965973 
	C381.516205,475.572968 393.358368,467.798157 403.583893,457.039856 
	C416.151947,443.816895 421.898529,427.932892 422.948181,410.141083 
	C423.991241,392.460754 417.814972,376.718079 408.546783,362.136810 
	C390.844635,334.286804 372.629181,306.761383 355.068756,278.823425 
	C343.280487,260.068756 329.894928,243.003433 311.170715,230.640671 
	C292.608673,218.384995 272.322662,211.268356 250.095123,210.060760 
	C242.948181,209.672470 235.762344,209.999954 227.666565,210.000000 
M136.423325,77.059387 
	C130.641479,90.779579 128.228180,105.107552 129.062851,119.934212 
	C129.326218,124.612633 130.249924,129.262772 131.013153,133.902512 
	C133.454987,148.746765 139.934494,161.853119 149.705353,173.035553 
	C163.476242,188.795929 180.698029,197.279297 202.236450,196.085846 
	C216.743973,195.281998 229.157166,189.897751 239.912903,180.526932 
	C252.469620,169.587006 260.786865,155.882996 264.967194,139.758301 
	C269.309662,123.008270 269.808136,106.087257 264.896179,89.470230 
	C256.969452,62.654091 241.511047,42.498722 213.253281,34.714336 
	C200.590515,31.226023 187.915756,32.171024 175.964645,37.132126 
	C157.644684,44.737049 144.772186,58.215992 136.423325,77.059387 
M309.505402,83.997704 
	C304.333282,91.038071 298.343475,97.625977 294.148376,105.207016 
	C283.296143,124.818367 279.643799,145.930817 284.047607,168.086105 
	C286.976349,182.820389 293.295563,196.158554 304.225983,206.502487 
	C317.593933,219.153091 333.682312,224.818146 352.438568,223.107712 
	C373.797546,221.159927 390.557770,210.647858 403.410919,194.699356 
	C420.553162,173.428818 427.140411,148.629837 423.063446,121.214211 
	C420.473358,103.797234 413.208801,89.058975 399.905151,77.423210 
	C386.541290,65.734802 371.254120,60.965874 353.368103,62.828499 
	C336.243225,64.611862 322.585510,72.658951 309.505402,83.997704 
z"/>
<path fill="#000000" opacity="1.000000" stroke="none" 
	d="
M1.000000,173.468658 
	C2.659821,169.320267 4.322376,165.641769 5.978997,161.960587 
	C13.341972,145.599304 25.162506,134.545776 43.161011,131.014160 
	C61.337505,127.447617 77.039528,132.916031 90.973358,144.485855 
	C105.947357,156.919403 114.245300,172.969742 117.073517,192.123718 
	C120.198883,213.289993 115.772591,232.368240 100.545433,247.740082 
	C86.105934,262.316772 64.848213,266.007996 45.701862,258.206665 
	C22.349651,248.691650 8.781118,230.883926 2.887055,206.751450 
	C2.746789,206.177139 2.132360,205.718658 1.369545,205.103073 
	C1.000000,194.645767 1.000000,184.291550 1.000000,173.468658 
z"/>
<path fill="#000000" opacity="1.000000" stroke="none" 
	d="
M513.000000,262.531433 
	C511.149719,268.688995 509.568665,274.483032 507.397186,280.046661 
	C501.592926,294.917999 491.444122,306.320953 478.181854,314.938599 
	C469.011017,320.897705 458.966095,324.171234 447.899475,325.139038 
	C431.364227,326.585052 417.159332,321.918396 405.802917,310.091095 
	C397.598053,301.546021 393.304474,290.929199 391.881287,278.913849 
	C389.406281,258.018402 395.923035,239.932190 408.661743,224.063126 
	C418.843597,211.379227 432.050232,202.223251 448.283630,199.143066 
	C472.844391,194.482819 492.659088,200.895615 506.572266,223.474991 
	C509.661407,228.488281 510.409637,234.944000 512.617859,240.867783 
	C513.000000,248.020950 513.000000,255.041916 513.000000,262.531433 
z"/>
<path fill="#000000" opacity="1.000000" stroke="none" 
	d="
M228.130432,210.000000 
	C235.762344,209.999954 242.948181,209.672470 250.095123,210.060760 
	C272.322662,211.268356 292.608673,218.384995 311.170715,230.640671 
	C329.894928,243.003433 343.280487,260.068756 355.068756,278.823425 
	C372.629181,306.761383 390.844635,334.286804 408.546783,362.136810 
	C417.814972,376.718079 423.991241,392.460754 422.948181,410.141083 
	C421.898529,427.932892 416.151947,443.816895 403.583893,457.039856 
	C393.358368,467.798157 381.516205,475.572968 367.032684,478.965973 
	C351.421204,482.623230 336.141144,481.550476 321.105347,475.665985 
	C311.569214,471.933838 301.907349,468.348053 292.031372,465.709076 
	C282.394501,463.134033 272.482758,461.044525 262.566925,460.190826 
	C249.414429,459.058411 236.066879,458.309479 222.937820,459.258636 
	C206.215439,460.467590 189.871475,464.536407 174.056625,470.413849 
	C165.366547,473.643372 156.772598,477.580719 147.771896,479.434875 
	C126.811523,483.752808 107.099907,480.014435 89.626053,467.094574 
	C74.685509,456.047760 64.475273,441.768768 60.735313,423.312866 
	C57.137779,405.559784 58.181618,388.305328 67.911392,372.541382 
	C81.852158,349.954926 96.169380,327.600677 110.348816,305.161743 
	C118.943642,291.560425 127.217148,277.737366 136.288605,264.460510 
	C148.907593,245.991531 165.556229,231.969131 185.645096,221.998001 
	C198.941437,215.398346 213.105576,212.057632 228.130432,210.000000 
z"/>
<path fill="#000000" opacity="1.000000" stroke="none" 
	d="
M136.689880,76.766975 
	C144.772186,58.215992 157.644684,44.737049 175.964645,37.132126 
	C187.915756,32.171024 200.590515,31.226023 213.253281,34.714336 
	C241.511047,42.498722 256.969452,62.654091 264.896179,89.470230 
	C269.808136,106.087257 269.309662,123.008270 264.967194,139.758301 
	C260.786865,155.882996 252.469620,169.587006 239.912903,180.526932 
	C229.157166,189.897751 216.743973,195.281998 202.236450,196.085846 
	C180.698029,197.279297 163.476242,188.795929 149.705353,173.035553 
	C139.934494,161.853119 133.454987,148.746765 131.013153,133.902512 
	C130.249924,129.262772 129.326218,124.612633 129.062851,119.934212 
	C128.228180,105.107552 130.641479,90.779579 136.689880,76.766975 
z"/>
<path fill="#000000" opacity="1.000000" stroke="none" 
	d="
M309.759460,83.738213 
	C322.585510,72.658951 336.243225,64.611862 353.368103,62.828499 
	C371.254120,60.965874 386.541290,65.734802 399.905151,77.423210 
	C413.208801,89.058975 420.473358,103.797234 423.063446,121.214211 
	C427.140411,148.629837 420.553162,173.428818 403.410919,194.699356 
	C390.557770,210.647858 373.797546,221.159927 352.438568,223.107712 
	C333.682312,224.818146 317.593933,219.153091 304.225983,206.502487 
	C293.295563,196.158554 286.976349,182.820389 284.047607,168.086105 
	C279.643799,145.930817 283.296143,124.818367 294.148376,105.207016 
	C298.343475,97.625977 304.333282,91.038071 309.759460,83.738213 
z"/>
</svg>