<svg version="1.1" id="Layer_1" xmlns="http://www.w3.org/2000/svg" xmlns:xlink="http://www.w3.org/1999/xlink" x="0px" y="0px"
	 width="100%" viewBox="0 0 576 1024" enable-background="new 0 0 576 1024" xml:space="preserve">
<path fill="#000000" opacity="1.000000" stroke="none" 
	d="
M321.151611,631.987061 
	C293.739441,620.891663 266.492218,620.527466 239.666397,631.897766 
	C217.760620,641.182617 197.669617,633.224609 187.660446,618.577393 
	C178.410599,605.041382 176.936798,590.191345 185.202301,576.116577 
	C197.500931,555.173950 210.181137,534.318726 224.446198,514.696533 
	C252.526154,476.071594 310.389191,477.423584 337.596893,516.906372 
	C350.248230,535.265625 362.185760,554.150452 373.728302,573.231628 
	C388.554718,597.741455 376.721466,627.301514 349.773651,634.686523 
	C339.988556,637.368103 330.672363,635.878052 321.151611,631.987061 
z"/>
<path fill="#000000" opacity="1.000000" stroke="none" 
	d="
M342.408020,494.782898 
	C324.612000,496.337433 310.731964,486.805908 304.821320,469.354248 
	C298.134430,449.610504 306.510345,424.772980 323.800964,413.072937 
	C344.219727,399.256226 368.332489,406.490631 377.803467,429.275024 
	C388.161957,454.194489 373.073059,486.471558 347.705353,493.621735 
	C346.108856,494.071716 344.461670,494.341919 342.408020,494.782898 
z"/>
<path fill="#000000" opacity="1.000000" stroke="none" 
	d="
M295.075684,427.504150 
	C296.354645,441.866425 293.975220,454.790710 284.987701,466.018707 
	C271.311554,483.104065 249.317383,484.982239 233.149612,470.351624 
	C213.835190,452.873535 213.740158,417.494385 232.960236,399.860840 
	C252.124329,382.278687 280.687134,389.305725 291.158661,414.167755 
	C292.910736,418.327606 294.158478,422.629333 295.075684,427.504150 
z"/>
<path fill="#000000" opacity="1.000000" stroke="none" 
	d="
M376.963074,547.291504 
	C363.985657,538.933289 359.599365,526.291626 363.749756,510.036621 
	C368.609406,491.003754 388.729340,477.273682 406.733154,480.704193 
	C419.458710,483.128967 428.401001,494.064026 429.440033,506.977203 
	C431.185394,528.668396 414.401703,548.461792 394.177765,550.706421 
	C388.169250,551.373230 382.622437,550.120056 376.963074,547.291504 
z"/>
<path fill="#000000" opacity="1.000000" stroke="none" 
	d="
M193.934341,447.904938 
	C210.554810,459.390472 217.208038,478.376923 211.091064,496.156067 
	C205.100586,513.567566 186.583420,521.013489 170.150635,512.618652 
	C153.691574,504.210419 144.610672,482.668274 149.857681,464.927124 
	C155.204391,446.848785 174.143951,436.473816 193.934341,447.904938 
z"/>
</svg>